<svg xmlns="http://www.w3.org/2000/svg" xml:space="preserve" viewBox="0 0 59.702 59.702"><path d="M38.953 13.351c0-2.206 1.794-4 4-4a1 1 0 1 0 0-2c-3.309 0-6 2.691-6 6a1 1 0 1 0 2 0z"/><path d="m59.677 49.186-1.308-3.809a4.908 4.908 0 0 0-4.842-4.026h-1.036a6.024 6.024 0 0 0-3.707-3.669c-.331-2.439-2.405-4.331-4.932-4.331h-3.028l2.625-8.005c6.296-.053 11.403-5.187 11.403-11.495 0-6.341-5.159-11.5-11.5-11.5s-11.5 5.159-11.5 11.5c0 3.891 1.947 7.331 4.913 9.413l-3.309 10.087h-4.605c-2.528 0-4.602 1.893-4.932 4.331a6.024 6.024 0 0 0-3.707 3.669H17.75a5.009 5.009 0 0 0-4.899-4h-2a5.007 5.007 0 0 0-4.901 4.02 4.897 4.897 0 0 0-4.616 4.006L.067 49.023l-.042.164a1.841 1.841 0 0 0 .374 1.443c.33.419.826.681 1.43.721h8.272a5.009 5.009 0 0 0 4.899 4h10c1.103 0 2 .897 2 2h2c0-2.206-1.794-4-4-4h-9.999a2.996 2.996 0 0 1-2.816-2h45.724l.035-.003a1.9 1.9 0 0 0 1.36-.719c.322-.407.458-.934.373-1.443zM33.851 13.851c0-5.238 4.262-9.5 9.5-9.5s9.5 4.262 9.5 9.5-4.262 9.5-9.5 9.5c-.148 0-.292-.015-.438-.022l-.123-.007a9.36 9.36 0 0 1-4.286-1.315c-2.78-1.658-4.653-4.689-4.653-8.156zm4.684 10.431.018.007c.894.413 1.848.712 2.847.884l-2.682 8.178h-3.157l2.974-9.069zm-9.684 11.069h15c1.321 0 2.445.858 2.847 2H26.023a3.004 3.004 0 0 1 2.828-2zm-3.709 4.072c.235-.043.473-.072.709-.072h21c.236 0 .474.029.709.072.07.013.139.026.207.043l.259.07c.96.299 1.781.947 2.286 1.815H22.391a4.029 4.029 0 0 1 2.751-1.928zm-14.291-.072h2c1.304 0 2.416.836 2.829 2H8.023a3.004 3.004 0 0 1 2.828-2zm1.15 10v-2h-2v2h-7.93l1.179-3.393.042-.164a2.915 2.915 0 0 1 2.885-2.443h47.349a2.915 2.915 0 0 1 2.885 2.443l1.22 3.557h-45.63z"/></svg>