<svg xmlns="http://www.w3.org/2000/svg" fill="none" viewBox="0 0 24 24"><path fill="#0F0F0F" fill-rule="evenodd" d="M10.155 3.74C9.133 4.244 7.703 4.76 5.07 4.938c-.637.043-1.053.535-1.035 1.028.1 2.736.416 5.457 1.02 7.689.618 2.284 1.48 3.834 2.5 4.514 1.607 1.071 2.929 2 3.816 2.636.374.268.884.268 1.258 0 .887-.636 2.21-1.565 3.816-2.636 1.02-.68 1.881-2.23 2.5-4.514.604-2.232.92-4.953 1.02-7.689.018-.493-.398-.985-1.035-1.028-2.633-.178-4.063-.694-5.085-1.196a24.44 24.44 0 0 1-.703-.362c-.507-.269-.711-.377-1.142-.377-.43 0-.635.108-1.142.377a24.44 24.44 0 0 1-.703.362Zm-.469-2.012c.616-.333 1.34-.726 2.314-.726.973 0 1.698.393 2.314.726.143.078.28.152.414.218.775.381 1.95.834 4.337.995 1.567.106 2.96 1.382 2.898 3.097-.103 2.82-.43 5.707-1.088 8.138-.644 2.38-1.663 4.551-3.32 5.656a136.133 136.133 0 0 0-3.76 2.597 3.085 3.085 0 0 1-3.59 0c-.872-.625-2.175-1.54-3.76-2.597-1.657-1.105-2.676-3.276-3.32-5.656-.658-2.432-.986-5.317-1.088-8.138-.063-1.715 1.331-2.99 2.898-3.097 2.388-.16 3.562-.614 4.337-.995.133-.066.27-.14.414-.218Z" clip-rule="evenodd"/></svg>