<svg xmlns="http://www.w3.org/2000/svg" xml:space="preserve" version="1.0" viewBox="0 0 64 64"><g fill="#231F20" fill-rule="evenodd" clip-rule="evenodd"><path d="M31.998 14.002c-9.941 0-18 8.059-18 18s8.059 18 18 18 18-8.059 18-18-8.059-18-18-18zm11 19a1 1 0 0 1-1-1c0-5.523-4.478-10-10-10a1 1 0 1 1 0-2c6.627 0 12 5.373 12 12a1 1 0 0 1-1 1zM63 31H53a1 1 0 1 0 0 2h10a1 1 0 1 0 0-2zM11.457 36.47l-3.863 1.035a1 1 0 1 0 .518 1.932l3.863-1.035a1 1 0 1 0-.518-1.932zM49.32 22a1 1 0 0 0 1.367.366l8.66-5A.997.997 0 0 0 59.712 16a.997.997 0 0 0-1.365-.365l-8.66 5A1 1 0 0 0 49.32 22zM17.858 46.143a1 1 0 0 0-1.414 0l-2.828 2.828a1 1 0 0 0 1.414 1.414l2.828-2.828a.999.999 0 0 0 0-1.414zM42 14.68a1 1 0 0 0 1.367-.366l5-8.66a.999.999 0 1 0-1.732-1.001l-4.999 8.661A.998.998 0 0 0 42 14.68zM26.824 51.318a1.004 1.004 0 0 0-1.225.707l-1.035 3.863a1.002 1.002 0 0 0 .709 1.226.997.997 0 0 0 1.223-.708l1.035-3.863a1 1 0 0 0-.707-1.225zM32 12a1 1 0 0 0 1.002-1V1a1 1 0 1 0-2.001 0l.001 10c0 .553.447 1 .998 1zM38.402 52.025a1 1 0 1 0-1.932.518l1.035 3.863a1.001 1.001 0 0 0 1.932-.518l-1.035-3.863zM20.637 14.312a1 1 0 1 0 1.731-1l-5-8.66a1.001 1.001 0 0 0-1.733 1l5.002 8.66zM47.558 46.142a1 1 0 0 0-1.414 1.414l2.828 2.828a1 1 0 0 0 1.414-1.414l-2.828-2.828zM4.654 17.365l8.662 4.999a1 1 0 0 0 .999-1.731l-8.661-5a1 1 0 1 0-1 1.732zM52.027 38.4l3.863 1.035a1 1 0 1 0 .518-1.932l-3.863-1.035a1 1 0 1 0-.518 1.932zM12 32a1 1 0 0 0-.998-1.002L1 31c-.552 0-1 .445-1 1 .001.551.448 1 1.001 1l10.001-.002A.997.997 0 0 0 12 32zM52.545 27.529l3.863-1.035a1 1 0 1 0-.518-1.932l-3.863 1.035a1 1 0 1 0 .518 1.932zM14.68 42a.998.998 0 0 0-1.365-.368l-8.661 5.002a1 1 0 1 0 1 1.731l8.66-5.002A.996.996 0 0 0 14.68 42zM46.144 17.856a1 1 0 0 0 1.414 0l2.828-2.828a.998.998 0 0 0-.002-1.415.996.996 0 0 0-1.412.001l-2.828 2.828a.999.999 0 0 0 0 1.414zM22 49.32a.999.999 0 0 0-1.365.364l-5 8.663a.998.998 0 1 0 1.732.998l4.998-8.662A.996.996 0 0 0 22 49.32zM37.178 12.68a1.003 1.003 0 0 0 1.225-.707l1.035-3.863a1 1 0 0 0-1.932-.518l-1.035 3.863a.999.999 0 0 0 .707 1.225zM32 52a.998.998 0 0 0-1 .998l.002 10.004c0 .55.443.998.998.998.553 0 1-.449 1.001-1l-.003-10.002A.996.996 0 0 0 32 52zM25.6 11.973a.998.998 0 0 0 1.225.707c.532-.141.846-.691.707-1.225l-1.035-3.863a1 1 0 1 0-1.932.518l1.035 3.863zM43.363 49.687A.993.993 0 0 0 42 49.322a.999.999 0 0 0-.367 1.364l5.004 8.661a.994.994 0 0 0 1.363.366c.479-.277.642-.889.367-1.367l-5.004-8.659zM16.443 17.856a.997.997 0 0 0 1.414 0 1.003 1.003 0 0 0 0-1.414l-2.828-2.828a.998.998 0 0 0-1.415.002.996.996 0 0 0 .001 1.412l2.828 2.828zM59.348 46.633l-8.663-4.997a.993.993 0 0 0-1.363.366.998.998 0 0 0 .364 1.364l8.664 4.999A.996.996 0 0 0 59.713 48a1.004 1.004 0 0 0-.365-1.367zM11.974 25.599 8.11 24.563a.999.999 0 0 0-1.225.708 1 1 0 0 0 .707 1.225l3.863 1.034a1 1 0 0 0 1.225-.707 1.002 1.002 0 0 0-.706-1.224z"/></g></svg>